<svg version="1.2" xmlns="http://www.w3.org/2000/svg" viewBox="0 0 1596 292" width="1596" height="292">
	<title>Deutsche_Börse-svg</title>
	<style>
		.s0 { fill: #ffffff } 
	</style>
	<path id="Layer" class="s0" d="m71 180.6l37.7 21.3-108 61.8v-43.2l70.3-39.9m113 15l-37.7 21.4-69.8-39.7h75.4l32.1 18.3m113.7-58.6l37.2 21.8-107.3 61.5h-75.5l145.6-83.3m113.3 15.4l-38 21.8-70-40.4h75.1l32.9 18.6m225-79.5l-182.1 104.4-75.3 0.1 257.4-147.3v42.8"/>
	<path id="Layer" fill-rule="evenodd" class="s0" d="m791.3 226.4c-4.3 5.6-9.9 8.2-17.8 8.2-15.8 0-25.6-13-25.6-35.5 0-21.5 10.4-33.8 27.8-33.8 12.1 0 20.4 6 23.7 17l-11.4 2.9c-2.7-6.3-6.7-9.4-12.5-9.4-9.7 0-14.8 8.2-14.8 24 0 15.5 5.3 23.7 14.4 23.7 7.1 0 12.2-5 13.3-13.7h-12.6v-10.5h25.1v34.2h-9zm27.2-60.3h22.8c16.9 0 25.3 6.4 25.3 20.1 0 8.8-4.5 14.8-12.4 17l14.9 30.2h-13.6l-13-27.3h-11.6v27.3h-12.3c-0.1 0-0.1-67.3-0.1-67.3zm23.5 29.3c8 0 11.8-2.9 11.8-9.3 0-6.6-3.9-9.4-11.8-9.4h-11.1v18.7zm66.8 39.1c-15.4 0-27.9-15.5-27.9-34.6 0-19.2 12.5-34.7 27.9-34.7 15.5 0 28 15.5 28 34.7 0 19.1-12.5 34.6-28 34.6zm15.1-34.7c0-12.9-6.7-23.4-15.1-23.4-8.3 0-15 10.5-15 23.4 0 12.9 6.7 23.3 15 23.3 8.4 0 15.1-10.4 15.1-23.3zm28.5-33.7h12.7v43.1c0 9.6 3.4 14.2 12.7 14.2 9.9 0 13.3-4.3 13.3-14.2v-43.1h12.3v44.6c0 15.3-9.2 23.8-25.6 23.8-17.2 0-25.4-8.5-25.4-25.8zm70.6 0h24.1c15.7 0 23.5 6.5 23.5 20 0 13.1-7.7 20.1-22.3 20.1h-12.5v27.2h-12.8zm22.2 29.5c8.6 0 12.7-2.2 12.7-9.5 0-7.3-4-9.5-12.7-9.5h-9.4v19zm-293.1-136.4h20.6c20.8 0 31.5 11.4 31.5 33.4 0 22.6-10.7 34-32 34h-20.1zm19.6 56.2c13.9 0 19.7-6.8 19.7-22.8 0-15.3-6.2-22.2-19.8-22.2h-6.8v45c0 0 6.9 0 6.9 0zm48.9 11.1v-67.3h43.6v10.9h-31.1v15.9h22.7v10.8h-22.7v18.2h32.5v11.5zm60-67.3h12.7v43.1c0 9.6 3.4 14.2 12.8 14.2 9.9 0 13.2-4.3 13.2-14.2v-43.1h12.3v44.6c0 15.3-9.1 23.8-25.5 23.8-17.2 0-25.5-8.5-25.5-25.8zm82.7 67.3v-56.2h-17.7v-11.1h48.2v11.1h-17.7v56.2zm50.9-20.3c3.5 7.2 7.7 10.3 13.7 10.3 6.9 0 10.9-3.4 10.9-8.5 0-4.5-3-6.9-10-9.5-6-2.2-11.5-4-16-6.9-5.1-3.2-7.8-8.4-7.8-14.8 0-10.7 8.6-18.4 21.9-18.4 11.5 0 19.1 5 22.7 14.8l-11.5 4.1c-2.8-5.9-6.4-8.6-12.1-8.6-5.6 0-8.9 2.8-8.9 7.1 0 6.3 6.5 7.5 17.2 12 11.2 4.7 16.7 9.1 16.7 19.6 0 12.3-8.4 20.1-22.8 20.1-12.4 0-21.1-5.6-25.5-16.2zm99.6 3.5c-3.3 11.5-12.1 17.9-24.8 17.9-17.4 0-26.5-11.6-26.5-34.4 0-22.5 10-34.9 27.2-34.9 12.1 0 20.1 6.2 22.7 17.6l-11.7 2.9c-1.6-6.5-5.6-9.8-11.7-9.8-9.2 0-13.6 8-13.6 24.3 0 15.5 4.2 23.1 13.9 23.1 6.2 0 11.1-3.8 12.8-10zm14.7 16.9v-67.4h12.6v26.7h25.7v-26.7h12.7v67.4h-12.7v-29.3h-25.7v29.3zm71.1 0v-67.4h43.7v11h-31.1v15.9h22.6v10.7h-22.6v18.3h32.5v11.5zm92.2-67.4h24.4c14.8 0 22.6 6.3 22.6 17.9 0 6.4-3 10.8-9.8 14.2q11.4 3.9 11.4 16.4c0 12.8-8.2 18.9-24.8 18.9h-23.8zm22.8 57c8.9 0 13.1-3 13.1-10.1 0-6.7-4.2-9.9-12.6-9.9h-10.9v20zm0-30.1c7.7 0 11.7-2.6 11.7-8.3 0-6.1-4.1-8.2-12.5-8.2h-9.6v16.5c0 0 10.4 0 10.4 0zm67.3 41.5c-15.4 0-27.9-15.4-27.9-34.6 0-19.2 12.5-34.7 27.9-34.7 15.5 0 28 15.5 28 34.7 0 19.2-12.5 34.6-28 34.6zm15.1-34.7c0-12.9-6.7-23.3-15.1-23.3-8.3 0-15.1 10.4-15.1 23.3 0 12.9 6.8 23.3 15.1 23.3 8.4 0 15.1-10.4 15.1-23.3zm-12.3-52.6h10.2v11h-10.2zm-15.7 0h10.1v11h-10.1zm56.4 18.9h22.8c16.9 0 25.3 6.4 25.3 20.1 0 8.8-4.5 14.8-12.4 17.1l14.9 30.2h-13.6l-13-27.4h-11.5v27.4h-12.4c-0.1 0-0.1-67.4-0.1-67.4zm23.5 29.4c8 0 11.8-2.9 11.8-9.4 0-6.6-3.9-9.3-11.8-9.3h-11v18.7c0 0 11 0 11 0zm49.4 17.7c3.5 7.1 7.6 10.3 13.7 10.3 6.8 0 10.9-3.5 10.9-8.6 0-4.5-3.1-6.8-10-9.4-6-2.2-11.6-4.1-16-7-5.1-3.2-7.9-8.4-7.9-14.8 0-10.6 8.6-18.3 21.9-18.3 11.5 0 19.2 5 22.7 14.7l-11.5 4.2c-2.7-5.9-6.4-8.6-12.1-8.6-5.5 0-8.9 2.7-8.9 7.1 0 6.3 6.6 7.4 17.2 11.9 11.2 4.8 16.8 9.1 16.8 19.7 0 12.2-8.4 20-22.9 20-12.4 0-21.1-5.6-25.4-16.1zm52.7 20.3v-67.4h43.7v10.9h-31.1v16h22.7v10.7h-22.7v18.3h32.5v11.5zm-862.1-125.9h10.2v291.2h-10.2z"/>
</svg>