<?xml version="1.0" encoding="UTF-8" standalone="no"?>
<!-- Created with Inkscape (http://www.inkscape.org/) -->

<svg
   version="1.1"
   id="svg2"
   width="342.66666"
   height="96"
   viewBox="0 0 342.66666 96"
   sodipodi:docname="deutsche-borse-ag-seeklogo.com.eps"
   xmlns:inkscape="http://www.inkscape.org/namespaces/inkscape"
   xmlns:sodipodi="http://sodipodi.sourceforge.net/DTD/sodipodi-0.dtd"
   xmlns="http://www.w3.org/2000/svg"
   xmlns:svg="http://www.w3.org/2000/svg">
  <defs
     id="defs6" />
  <sodipodi:namedview
     id="namedview4"
     pagecolor="#ffffff"
     bordercolor="#000000"
     borderopacity="0.25"
     inkscape:showpageshadow="2"
     inkscape:pageopacity="0.0"
     inkscape:pagecheckerboard="0"
     inkscape:deskcolor="#d1d1d1" />
  <g
     id="g8"
     inkscape:groupmode="layer"
     inkscape:label="ink_ext_XXXXXX"
     transform="matrix(1.3333333,0,0,-1.3333333,0,96)">
    <g
       id="g10"
       transform="scale(0.1)">
      <path
         d="M 2570,0 H 0 V 720 H 2570 V 0"
         style="fill:#27296f;fill-opacity:1;fill-rule:evenodd;stroke:none"
         id="path12" />
      <path
         d="M 206.672,174.629 425.117,307.305 H 302.734 l -96.062,-58.36 v -74.316 0"
         style="fill:#ffffff;fill-opacity:1;fill-rule:evenodd;stroke:none"
         id="path14" />
      <path
         d="M 206.672,174.629 425.117,307.305 H 302.734 l -96.062,-58.36 v -74.316 z"
         style="fill:none;stroke:#252765;stroke-width:5;stroke-linecap:butt;stroke-linejoin:miter;stroke-miterlimit:4;stroke-dasharray:none;stroke-opacity:1"
         id="path16" />
      <path
         d="M 424.648,307.305 H 302.258 L 413.23,240.039 h 122.395 l -110.977,67.266 v 0"
         style="fill:#ffffff;fill-opacity:1;fill-rule:evenodd;stroke:none"
         id="path18" />
      <path
         d="M 424.648,307.305 H 302.258 L 413.23,240.039 h 122.395 l -110.977,67.266 z"
         style="fill:none;stroke:#252765;stroke-width:5;stroke-linecap:butt;stroke-linejoin:miter;stroke-miterlimit:4;stroke-dasharray:none;stroke-opacity:1"
         id="path20" />
      <path
         d="M 752.551,372.793 H 630.168 L 411.23,240.039 h 122.383 l 218.938,132.754 v 0"
         style="fill:#ffffff;fill-opacity:1;fill-rule:evenodd;stroke:none"
         id="path22" />
      <path
         d="M 752.551,372.793 H 630.168 L 411.23,240.039 h 122.383 l 218.938,132.754 z"
         style="fill:none;stroke:#252765;stroke-width:5;stroke-linecap:butt;stroke-linejoin:miter;stroke-miterlimit:4;stroke-dasharray:none;stroke-opacity:1"
         id="path24" />
      <path
         d="M 752.207,371.902 H 629.805 L 740.82,304.648 h 122.364 l -110.977,67.254 v 0"
         style="fill:#ffffff;fill-opacity:1;fill-rule:evenodd;stroke:none"
         id="path26" />
      <path
         d="M 752.207,371.902 H 629.805 L 740.82,304.648 h 122.364 l -110.977,67.254 z"
         style="fill:none;stroke:#252765;stroke-width:5;stroke-linecap:butt;stroke-linejoin:miter;stroke-miterlimit:4;stroke-dasharray:none;stroke-opacity:1"
         id="path28" />
      <path
         d="M 1088.1,516.719 739.551,304.648 H 861.934 L 1088.1,442.266 v 74.453 0"
         style="fill:#ffffff;fill-opacity:1;fill-rule:evenodd;stroke:none"
         id="path30" />
      <path
         d="M 1088.1,516.719 739.551,304.648 H 861.934 L 1088.1,442.266 v 74.453 z"
         style="fill:none;stroke:#252765;stroke-width:5;stroke-linecap:butt;stroke-linejoin:miter;stroke-miterlimit:4;stroke-dasharray:none;stroke-opacity:1"
         id="path32" />
      <path
         d="m 1262.96,396.672 h 13.96 c 8.33,0 14.62,1.219 18.86,3.66 4.25,2.441 7.5,6.277 9.75,11.492 2.24,5.227 3.37,11.781 3.37,19.68 0,7.891 -1.03,14.687 -3.08,20.371 -2.06,5.691 -5.19,9.883 -9.39,12.578 -4.2,2.703 -10.81,4.055 -19.8,4.055 h -13.67 z m -11.84,-10.024 v 90.942 h 25.14 c 12.23,0 21.17,-1.66 26.84,-4.985 5.66,-3.32 10.08,-8.386 13.27,-15.203 3.18,-6.816 4.77,-15.129 4.77,-24.929 0,-9.184 -1.43,-17.141 -4.3,-23.879 -2.88,-6.739 -7.22,-12.078 -13.04,-16.028 -5.82,-3.945 -14.45,-5.918 -25.9,-5.918 h -26.78"
         style="fill:#ffffff;fill-opacity:1;fill-rule:nonzero;stroke:none"
         id="path34" />
      <path
         d="m 1343.6,386.648 v 90.942 h 51.39 v -10.024 h -39.55 v -28.652 h 34.57 v -9.078 h -34.57 v -33.164 h 42.71 v -10.024 h -54.55"
         style="fill:#ffffff;fill-opacity:1;fill-rule:nonzero;stroke:none"
         id="path36" />
      <path
         d="m 1419.75,477.59 h 11.83 v -58.52 c 0,-8.523 0.82,-14.234 2.48,-17.156 1.66,-2.91 4.26,-5.129 7.78,-6.648 3.51,-1.528 7.44,-2.286 11.77,-2.286 4.18,0 7.87,0.758 11.1,2.286 3.22,1.519 5.62,3.933 7.2,7.234 1.59,3.313 2.39,10.215 2.39,20.73 v 54.36 h 10.89 v -57.363 c 0,-10.625 -1.23,-18.086 -3.67,-22.383 -2.44,-4.297 -5.95,-7.699 -10.56,-10.199 -4.61,-2.5 -10.41,-3.75 -17.41,-3.75 -6.48,0 -12.42,1 -17.81,2.992 -5.39,1.992 -9.41,5.086 -12.05,9.285 -2.64,4.199 -3.94,11.316 -3.94,21.355 v 60.063"
         style="fill:#ffffff;fill-opacity:1;fill-rule:nonzero;stroke:none"
         id="path38" />
      <path
         d="m 1533.61,386.648 v 81.86 h -30.93 v 9.082 h 73.24 v -9.082 h -30.47 v -81.86 h -11.84"
         style="fill:#ffffff;fill-opacity:1;fill-rule:nonzero;stroke:none"
         id="path40" />
      <path
         d="m 1592.46,407.039 h 11.84 v -0.586 c 0,-5.039 1.77,-8.543 5.33,-10.515 3.55,-1.973 8.28,-2.958 14.18,-2.958 5.15,0 9.47,1.5 12.97,4.52 3.49,3.008 5.25,6.973 5.25,11.895 0,3.984 -1.5,7.246 -4.51,9.793 -3.01,2.5 -7.57,5.011 -13.69,7.511 l -4.75,1.934 c -6.43,2.656 -11.24,5.281 -14.41,7.883 -3.19,2.605 -5.56,5.476 -7.12,8.648 -1.55,3.164 -2.34,6.699 -2.34,10.617 0,6.875 2.43,12.676 7.29,17.403 4.85,4.738 12.46,7.097 22.79,7.097 9.48,0 16.15,-1.758 20.02,-5.269 3.87,-3.52 5.8,-7.617 5.8,-12.309 v -0.586 h -11.83 v 0.586 c 0,1.485 -0.61,2.949 -1.79,4.399 -1.19,1.445 -2.98,2.488 -5.35,3.132 -2.37,0.645 -4.99,0.965 -7.84,0.965 -5.8,0 -10.11,-1.453 -12.89,-4.363 -2.8,-2.91 -4.18,-6.231 -4.18,-9.941 0,-2.5 0.66,-4.864 1.98,-7.071 1.33,-2.207 3.15,-4.035 5.48,-5.476 2.31,-1.45 6.23,-3.391 11.73,-5.813 l 5.55,-2.402 c 8.9,-3.867 14.85,-7.93 17.85,-12.18 2.97,-4.258 4.46,-8.836 4.46,-13.758 0,-4.57 -1.21,-8.996 -3.64,-13.269 -2.42,-4.27 -5.78,-7.512 -10.07,-9.719 -4.3,-2.207 -10.02,-3.312 -17.17,-3.312 -6.8,0 -12.48,0.812 -17.03,2.433 -4.55,1.61 -8.01,4.27 -10.37,7.969 -2.37,3.711 -3.54,7.754 -3.54,12.156 v 0.586"
         style="fill:#ffffff;fill-opacity:1;fill-rule:nonzero;stroke:none"
         id="path42" />
      <path
         d="m 1729.94,406.16 h 10.9 v -0.586 c 0,-3.582 -1.24,-7.222 -3.72,-10.926 -2.48,-3.703 -5.85,-6.418 -10.11,-8.156 -4.26,-1.726 -9.26,-2.597 -15,-2.597 -11.56,0 -21.01,4.027 -28.36,12.062 -7.34,8.047 -11.01,20.09 -11.01,36.133 0,15.969 3.65,27.988 10.95,36.074 7.31,8.074 16.8,12.117 28.48,12.117 5.7,0 10.68,-0.867 14.94,-2.605 4.26,-1.731 7.63,-4.473 10.11,-8.235 2.48,-3.757 3.72,-7.371 3.72,-10.836 v -0.585 h -10.9 v 0.585 c 0,2.223 -0.69,4.364 -2.09,6.415 -1.39,2.05 -3.38,3.593 -5.98,4.628 -2.59,1.036 -5.72,1.551 -9.35,1.551 -9.32,0 -16.25,-3.672 -20.8,-11.011 -4.56,-7.344 -6.84,-16.704 -6.84,-28.071 0,-11.48 2.29,-20.879 6.87,-28.179 4.58,-7.305 11.47,-10.958 20.71,-10.958 6.33,0 10.83,1.297 13.5,3.907 2.65,2.605 3.98,5.496 3.98,8.699 v 0.574"
         style="fill:#ffffff;fill-opacity:1;fill-rule:nonzero;stroke:none"
         id="path44" />
      <path
         d="m 1774.2,386.648 h -11.84 v 90.942 h 11.84 v -40.488 h 41.78 v 40.488 h 11.83 v -90.942 h -11.83 v 41.372 h -41.78 v -41.372"
         style="fill:#ffffff;fill-opacity:1;fill-rule:nonzero;stroke:none"
         id="path46" />
      <path
         d="m 1853.5,386.648 v 90.942 h 51.38 v -10.024 h -39.55 v -28.652 h 34.57 v -9.078 h -34.57 v -33.164 h 42.72 v -10.024 h -54.55"
         style="fill:#ffffff;fill-opacity:1;fill-rule:nonzero;stroke:none"
         id="path48" />
      <path
         d="m 1991.23,395.73 h 16.7 c 7.89,0 13.3,1.477 16.21,4.446 2.91,2.949 4.36,6.457 4.36,10.488 0,3.262 -0.94,6.25 -2.82,9.004 -1.87,2.734 -4.65,4.98 -8.34,6.727 -3.69,1.75 -9.47,2.621 -17.32,2.621 h -8.79 z m 0,42.368 h 11.37 c 5.86,0 10.25,0.781 13.16,2.34 2.91,1.566 5.24,3.8 6.97,6.71 1.74,2.911 2.6,5.911 2.6,8.997 0,3.394 -1.35,6.304 -4.06,8.726 -2.72,2.426 -7.62,3.637 -14.69,3.637 h -15.35 z m 29.06,-3.547 c 7.19,-1.77 12.4,-4.727 15.63,-8.899 3.22,-4.168 4.82,-8.875 4.82,-14.109 0,-4.355 -1.11,-8.438 -3.34,-12.273 -2.22,-3.84 -5.39,-6.899 -9.49,-9.192 -4.1,-2.285 -11.19,-3.43 -21.27,-3.43 h -27.25 v 90.942 h 24.14 c 11.02,0 18.42,-0.793 22.19,-2.375 3.77,-1.57 6.6,-3.906 8.52,-6.985 1.91,-3.074 2.87,-6.492 2.87,-10.234 0,-4.168 -1.21,-8.308 -3.63,-12.43 -2.43,-4.113 -6.82,-7.793 -13.19,-11.015"
         style="fill:#ffffff;fill-opacity:1;fill-rule:nonzero;stroke:none"
         id="path50" />
      <path
         d="m 2099.63,392.98 c 8.28,0 14.74,3.563 19.41,10.704 4.65,7.136 6.98,16.597 6.98,28.406 0,11.765 -2.33,21.23 -6.98,28.379 -4.67,7.148 -11.13,10.73 -19.41,10.73 -8.26,0 -14.73,-3.582 -19.4,-10.73 -4.66,-7.149 -7.01,-16.614 -7.01,-28.379 0,-11.809 2.35,-21.27 7.01,-28.406 4.67,-7.141 11.14,-10.704 19.4,-10.704 z m -0.04,-9.085 c -11.37,0 -20.65,4.179 -27.83,12.543 -7.19,8.359 -10.78,20.25 -10.78,35.679 0,15.434 3.59,27.317 10.78,35.656 7.18,8.34 16.46,12.508 27.83,12.508 11.37,0 20.66,-4.168 27.87,-12.508 7.21,-8.339 10.8,-20.222 10.8,-35.656 0,-15.429 -3.59,-27.32 -10.8,-35.679 -7.21,-8.364 -16.5,-12.543 -27.87,-12.543"
         style="fill:#ffffff;fill-opacity:1;fill-rule:nonzero;stroke:none"
         id="path52" />
      <path
         d="m 2172.56,434.813 h 11.56 c 4.9,0 8.61,0.753 11.13,2.257 2.52,1.504 4.53,3.7 6.02,6.582 1.48,2.871 2.23,5.957 2.23,9.239 0,2.851 -0.59,5.41 -1.76,7.656 -1.17,2.258 -2.89,4.141 -5.16,5.664 -2.28,1.531 -6.13,2.297 -11.56,2.297 h -12.46 z m 0,-48.165 h -11.84 v 90.942 h 28.13 c 6.91,0 12.11,-0.996 15.58,-2.988 3.48,-1.997 6.23,-4.875 8.26,-8.645 2.04,-3.769 3.05,-7.859 3.05,-12.273 0,-3.555 -0.68,-6.965 -2.03,-10.227 -1.37,-3.262 -3.28,-6.211 -5.74,-8.848 -2.48,-2.636 -6.33,-4.992 -11.56,-7.058 1.97,-1.098 3.43,-2.129 4.41,-3.11 1,-0.972 2.19,-2.554 3.59,-4.746 1.41,-2.183 2.66,-4.234 3.71,-6.148 l 14.46,-26.899 H 2209 l -12.54,23.911 c -3.06,5.781 -7.03,10.836 -11.95,15.171 h -11.95 v -39.082"
         style="fill:#ffffff;fill-opacity:1;fill-rule:nonzero;stroke:none"
         id="path54" />
      <path
         d="m 2239.61,407.039 h 11.83 v -0.586 c 0,-5.039 1.78,-8.543 5.34,-10.515 3.55,-1.973 8.28,-2.958 14.18,-2.958 5.15,0 9.49,1.5 12.98,4.52 3.5,3.008 5.24,6.973 5.24,11.895 0,3.984 -1.5,7.246 -4.49,9.793 -3.01,2.5 -7.58,5.011 -13.69,7.511 l -4.75,1.934 c -6.45,2.656 -11.25,5.281 -14.43,7.883 -3.19,2.605 -5.55,5.476 -7.11,8.648 -1.57,3.164 -2.35,6.699 -2.35,10.617 0,6.875 2.44,12.676 7.29,17.403 4.86,4.738 12.46,7.097 22.81,7.097 9.47,0 16.15,-1.758 20.02,-5.269 3.85,-3.52 5.78,-7.617 5.78,-12.309 v -0.586 h -11.83 v 0.586 c 0,1.485 -0.59,2.949 -1.78,4.399 -1.19,1.445 -2.97,2.488 -5.35,3.132 -2.39,0.645 -5,0.965 -7.84,0.965 -5.82,0 -10.11,-1.453 -12.91,-4.363 -2.77,-2.91 -4.18,-6.231 -4.18,-9.941 0,-2.5 0.67,-4.864 2,-7.071 1.32,-2.207 3.16,-4.035 5.47,-5.476 2.32,-1.45 6.23,-3.391 11.73,-5.813 l 5.57,-2.402 c 8.89,-3.867 14.84,-7.93 17.85,-12.18 2.95,-4.258 4.44,-8.836 4.44,-13.758 0,-4.57 -1.22,-8.996 -3.64,-13.269 -2.42,-4.27 -5.78,-7.512 -10.08,-9.719 -4.29,-2.207 -10.02,-3.312 -17.16,-3.312 -6.8,0 -12.46,0.812 -17.02,2.433 -4.55,1.61 -8,4.27 -10.37,7.969 -2.36,3.711 -3.55,7.754 -3.55,12.156 v 0.586"
         style="fill:#ffffff;fill-opacity:1;fill-rule:nonzero;stroke:none"
         id="path56" />
      <path
         d="m 2322.95,386.648 v 90.942 h 51.39 v -10.024 h -39.56 v -28.652 h 34.57 v -9.078 h -34.57 v -33.164 h 42.72 v -10.024 h -54.55"
         style="fill:#ffffff;fill-opacity:1;fill-rule:nonzero;stroke:none"
         id="path58" />
      <path
         d="m 1316.16,246.816 c -9.65,-4.609 -18.85,-6.914 -27.6,-6.914 -9.1,0 -16.46,1.797 -22.09,5.411 -5.62,3.613 -10.11,8.828 -13.47,15.625 -3.36,6.796 -5.04,15.507 -5.04,26.132 0,11.993 1.59,21.309 4.77,27.95 3.19,6.64 7.67,11.835 13.45,15.605 5.78,3.77 12.64,5.664 20.57,5.664 5.43,0 10.37,-0.859 14.82,-2.578 4.45,-1.719 8,-4.336 10.64,-7.832 2.63,-3.496 3.95,-6.953 3.95,-10.391 v -0.586 h -10.9 v 0.586 c 0,2.11 -0.81,4.063 -2.43,5.879 -1.62,1.817 -3.76,3.242 -6.39,4.278 -2.65,1.035 -5.65,1.562 -9.02,1.562 -8.83,0 -15.58,-3.457 -20.23,-10.371 -4.65,-6.914 -6.99,-16.445 -6.99,-28.594 0,-12.109 2.4,-21.679 7.16,-28.711 4.77,-7.031 11.51,-10.547 20.18,-10.547 5.1,0 10.99,1.211 17.72,3.633 v 25.957 h -20.5 v 9.082 h 31.4 v -40.84"
         style="fill:#ffffff;fill-opacity:1;fill-rule:nonzero;stroke:none"
         id="path60" />
      <path
         d="m 1352.27,290.82 h 11.57 c 4.89,0 8.6,0.743 11.12,2.254 2.53,1.504 4.53,3.703 6.02,6.574 1.49,2.872 2.23,5.957 2.23,9.239 0,2.859 -0.58,5.41 -1.77,7.668 -1.17,2.254 -2.89,4.129 -5.15,5.664 -2.28,1.531 -6.13,2.293 -11.56,2.293 h -12.46 z m 0,-48.164 h -11.83 v 90.938 h 28.12 c 6.92,0 12.11,-0.996 15.59,-2.989 3.48,-1.992 6.23,-4.882 8.26,-8.652 2.03,-3.769 3.05,-7.851 3.05,-12.265 0,-3.555 -0.69,-6.973 -2.04,-10.235 -1.37,-3.262 -3.28,-6.211 -5.74,-8.848 -2.48,-2.636 -6.33,-4.98 -11.56,-7.05 1.97,-1.094 3.43,-2.129 4.42,-3.106 0.98,-0.976 2.17,-2.558 3.58,-4.746 1.42,-2.187 2.66,-4.238 3.71,-6.152 l 14.45,-26.895 h -13.57 l -12.54,23.907 c -3.06,5.781 -7.03,10.839 -11.94,15.175 h -11.96 v -39.082"
         style="fill:#ffffff;fill-opacity:1;fill-rule:nonzero;stroke:none"
         id="path62" />
      <path
         d="m 1457.03,248.984 c 8.3,0 14.77,3.555 19.41,10.704 4.66,7.128 7,16.601 7,28.398 0,11.777 -2.34,21.23 -7,28.379 -4.64,7.156 -11.11,10.742 -19.41,10.742 -8.24,0 -14.71,-3.586 -19.37,-10.742 -4.69,-7.149 -7.02,-16.602 -7.02,-28.379 0,-11.797 2.33,-21.27 7.02,-28.398 4.66,-7.149 11.13,-10.704 19.37,-10.704 z m -0.02,-9.082 c -11.37,0 -20.64,4.18 -27.83,12.539 -7.19,8.36 -10.78,20.254 -10.78,35.684 0,15.43 3.59,27.305 10.78,35.645 7.19,8.339 16.46,12.519 27.83,12.519 11.37,0 20.65,-4.18 27.85,-12.519 7.21,-8.34 10.82,-20.215 10.82,-35.645 0,-15.43 -3.61,-27.324 -10.82,-35.684 -7.2,-8.359 -16.48,-12.539 -27.85,-12.539"
         style="fill:#ffffff;fill-opacity:1;fill-rule:nonzero;stroke:none"
         id="path64" />
      <path
         d="m 1516.8,333.594 h 11.83 v -58.516 c 0,-8.535 0.82,-14.238 2.48,-17.156 1.66,-2.91 4.26,-5.129 7.78,-6.652 3.51,-1.524 7.44,-2.286 11.77,-2.286 4.18,0 7.87,0.762 11.1,2.286 3.22,1.523 5.62,3.933 7.2,7.238 1.59,3.308 2.39,10.215 2.39,20.73 v 54.356 h 10.9 V 276.23 c 0,-10.625 -1.23,-18.085 -3.68,-22.382 -2.44,-4.297 -5.95,-7.696 -10.56,-10.196 -4.61,-2.5 -10.41,-3.75 -17.41,-3.75 -6.48,0 -12.42,0.996 -17.81,2.989 -5.39,1.992 -9.41,5.078 -12.05,9.277 -2.64,4.199 -3.94,11.328 -3.94,21.367 v 60.059"
         style="fill:#ffffff;fill-opacity:1;fill-rule:nonzero;stroke:none"
         id="path66" />
      <path
         d="m 1618.36,287.656 h 7.97 c 10.47,0 17.36,2.012 20.68,6.035 3.32,4.036 4.98,8.868 4.98,14.5 0,4.895 -1.35,8.829 -4.02,11.829 -2.68,2.988 -7.97,4.492 -15.9,4.492 h -13.71 z m 0,-45 h -11.84 v 90.938 h 25.32 c 9.64,0 16.44,-0.996 20.41,-2.969 3.96,-1.973 6.95,-4.863 8.96,-8.672 2.01,-3.808 3.03,-8.223 3.03,-13.262 0,-8.515 -2.91,-15.664 -8.71,-21.445 -5.8,-5.781 -14.44,-8.672 -25.92,-8.672 h -11.25 v -35.918"
         style="fill:#ffffff;fill-opacity:1;fill-rule:nonzero;stroke:none"
         id="path68" />
      <path
         d="M 2082.5,494.16 H 2115"
         style="fill:none;stroke:#ffffff;stroke-width:5;stroke-linecap:butt;stroke-linejoin:miter;stroke-miterlimit:4;stroke-dasharray:none;stroke-opacity:1"
         id="path70" />
      <path
         d="M 1173.33,550 V 156.66"
         style="fill:none;stroke:#ffffff;stroke-width:10;stroke-linecap:butt;stroke-linejoin:miter;stroke-miterlimit:4;stroke-dasharray:none;stroke-opacity:1"
         id="path72" />
    </g>
  </g>
</svg>
