<?xml version="1.0" encoding="UTF-8" standalone="no"?>
<!-- Created with Inkscape (http://www.inkscape.org/) -->

<svg
   version="1.1"
   id="svg2"
   width="258.66666"
   height="258.66666"
   viewBox="0 0 258.66666 258.66666"
   sodipodi:docname="Deutsche_Borse.eps"
   xmlns:inkscape="http://www.inkscape.org/namespaces/inkscape"
   xmlns:sodipodi="http://sodipodi.sourceforge.net/DTD/sodipodi-0.dtd"
   xmlns="http://www.w3.org/2000/svg"
   xmlns:svg="http://www.w3.org/2000/svg">
  <defs
     id="defs6" />
  <sodipodi:namedview
     id="namedview4"
     pagecolor="#ffffff"
     bordercolor="#000000"
     borderopacity="0.25"
     inkscape:showpageshadow="2"
     inkscape:pageopacity="0.0"
     inkscape:pagecheckerboard="0"
     inkscape:deskcolor="#d1d1d1" />
  <g
     id="g8"
     inkscape:groupmode="layer"
     inkscape:label="ink_ext_XXXXXX"
     transform="matrix(1.3333333,0,0,-1.3333333,0,258.66667)">
    <g
       id="g10"
       transform="scale(0.1)">
      <path
         d="M 2.59766,1933.23 H 1930.16 V 5.66797 H 2.59766 V 1933.23"
         style="fill:#ffffff;fill-opacity:1;fill-rule:evenodd;stroke:none"
         id="path12" />
      <path
         d="m 820.238,672.117 v 192.067 h 84.832 c 15.328,0 28.184,-2.883 38.567,-8.629 10.383,-5.746 18.422,-13.188 24.129,-22.332 5.707,-9.141 9.695,-18.934 11.988,-29.387 2.285,-10.441 3.43,-20.832 3.43,-31.148 0,-11.536 -1.266,-23.012 -3.793,-34.415 -2.524,-11.414 -6.821,-22.171 -12.899,-32.289 -6.078,-10.129 -14.34,-18.304 -24.816,-24.523 -10.465,-6.238 -23.215,-9.344 -38.227,-9.344 h -83.211 z m 39.446,159.192 V 704.992 h 38.82 c 10.117,0 18.453,3.047 24.984,9.145 6.532,6.101 11.231,14.078 14.086,23.926 2.86,9.843 4.285,20.406 4.285,31.691 0,17.363 -2.289,30.629 -6.847,39.777 -4.571,9.137 -10.024,15.051 -16.356,17.75 -6.34,2.684 -13.23,4.028 -20.668,4.028 h -38.304"
         style="fill:#231f20;fill-opacity:1;fill-rule:evenodd;stroke:none"
         id="path14" />
      <path
         d="m 1080.7,713.934 h 38.57 c -4.53,-15.848 -12.63,-27.399 -24.29,-34.672 -11.65,-7.266 -24.43,-10.899 -38.32,-10.899 -10.34,0 -19.81,1.364 -28.41,4.082 -8.61,2.715 -16.11,7.121 -22.49,13.2 -6.377,6.07 -11.322,14.175 -14.83,24.293 -3.516,10.132 -5.266,22.222 -5.266,36.3 0,5.957 0.777,12.789 2.348,20.481 1.578,7.679 4.652,15.472 9.254,23.344 4.594,7.882 11.574,14.539 20.924,19.964 9.34,5.414 21.27,8.129 35.78,8.129 7.89,0 15.68,-1.136 23.37,-3.426 7.69,-2.289 14.82,-6.265 21.41,-11.941 6.57,-5.68 11.92,-13.738 16.01,-24.187 4.1,-10.454 6.15,-23.379 6.15,-38.774 v -6.668 h -97.72 c 0.52,-5.773 1.52,-11.058 3.01,-15.844 1.48,-4.785 4.65,-9.125 9.5,-13.039 4.87,-3.914 11.84,-5.859 20.96,-5.859 5.44,0 10.47,1.387 15.09,4.164 4.62,2.781 7.6,6.574 8.95,11.352 z m -56.47,44.117 h 58.11 c -0.96,10.219 -4.24,17.625 -9.83,22.222 -5.61,4.594 -11.99,6.895 -19.12,6.895 -17.14,0 -26.85,-9.707 -29.16,-29.117"
         style="fill:#231f20;fill-opacity:1;fill-rule:evenodd;stroke:none"
         id="path16" />
      <path
         d="M 1260.29,814.402 V 672.117 h -35.99 v 19.957 h -0.52 c -4.27,-7.644 -10.09,-13.515 -17.46,-17.59 -7.37,-4.07 -15.96,-6.121 -25.8,-6.121 -9.58,0 -18.01,1.879 -25.3,5.61 -7.28,3.738 -12.96,9.547 -17.02,17.371 -4.07,7.84 -6.1,17.644 -6.1,29.398 v 93.66 h 37.56 v -88.371 c 0,-17.48 8.1,-26.211 24.29,-26.211 7.56,0 14.23,2.516 20.06,7.555 5.81,5.035 8.72,13.316 8.72,24.867 v 82.16 h 37.56"
         style="fill:#231f20;fill-opacity:1;fill-rule:evenodd;stroke:none"
         id="path18" />
      <path
         d="M 1323.78,852.918 V 814.59 h 23.28 v -27.242 h -23.28 v -76.434 c 0,-3.277 0.26,-5.621 0.77,-7.055 0.53,-1.414 1.87,-2.496 4.02,-3.226 2.15,-0.738 5.73,-1.098 10.73,-1.098 1.61,0 4.2,0.172 7.76,0.528 v -28.7 c -8.86,-0.308 -14.77,-0.468 -17.74,-0.468 h -4.77 c -10.34,0 -18.3,1.222 -23.91,3.668 -5.61,2.441 -9.41,5.863 -11.42,10.281 -2.01,4.422 -3.01,9.961 -3.01,16.621 v 85.883 h -19.23 v 27.242 h 19.23 v 38.328 h 37.57"
         style="fill:#231f20;fill-opacity:1;fill-rule:evenodd;stroke:none"
         id="path20" />
      <path
         d="m 1474.36,770.863 h -36.67 c -1.01,5.828 -3.15,10.391 -6.46,13.692 -3.29,3.304 -9.46,4.965 -18.5,4.965 -15.19,0 -22.79,-4.633 -22.79,-13.891 0,-4.777 5.03,-8.445 15.12,-11.008 10.08,-2.562 20.86,-5.164 32.31,-7.797 11.45,-2.625 21.2,-6.922 29.25,-12.894 8.04,-5.973 12.07,-14.899 12.07,-26.75 0,-12.653 -3.39,-22.625 -10.16,-29.922 -6.78,-7.297 -14.87,-12.274 -24.27,-14.914 -9.41,-2.656 -18.67,-3.981 -27.78,-3.981 -18.72,0 -34.65,3.852 -47.81,11.551 -13.16,7.707 -19.97,20.336 -20.44,37.899 h 38.5 c 0,-13.875 10.27,-20.805 30.8,-20.805 8.5,0 14.56,1.539 18.17,4.625 3.62,3.07 5.42,6.422 5.42,10.035 0,5.133 -5.25,9.031 -15.73,11.699 -10.5,2.68 -21.19,5.281 -32.1,7.821 -10.92,2.531 -20.32,6.757 -28.18,12.636 -7.87,5.883 -11.81,14.832 -11.81,26.828 0,7.735 1.82,15.2 5.44,22.411 3.63,7.214 9.73,13.21 18.3,17.96 8.57,4.747 19.76,7.133 33.57,7.133 40.21,0 61.46,-15.758 63.75,-47.293"
         style="fill:#231f20;fill-opacity:1;fill-rule:evenodd;stroke:none"
         id="path22" />
      <path
         d="m 1577.09,724.199 h 37.9 c -0.44,-4.773 -1.69,-10.156 -3.76,-16.16 -2.06,-6 -5.5,-12.066 -10.3,-18.187 -4.81,-6.125 -11.44,-11.227 -19.89,-15.336 -8.47,-4.102 -18.78,-6.153 -30.97,-6.153 -12.65,0 -23.3,2.157 -31.96,6.461 -8.66,4.321 -15.43,9.946 -20.32,16.922 -4.89,6.973 -8.36,14.551 -10.41,22.742 -2.04,8.184 -3.06,16.426 -3.06,24.754 0,15.762 2.38,29.555 7.14,41.395 4.76,11.812 12.23,21.019 22.41,27.625 10.18,6.601 23.04,9.894 38.62,9.894 8.92,0 17.93,-1.601 27.04,-4.781 9.11,-3.203 17.07,-8.859 23.88,-16.977 6.8,-8.132 10.75,-19.019 11.84,-32.66 h -37.9 c -2.75,15.309 -11.02,22.957 -24.85,22.957 -7.26,0 -13.12,-2.062 -17.57,-6.191 -4.47,-4.137 -7.59,-9.297 -9.4,-15.492 -1.8,-6.196 -2.71,-12.696 -2.71,-19.473 0,-7.699 0.52,-14.781 1.56,-21.234 1.05,-6.461 3.72,-12.239 8,-17.321 4.28,-5.093 10.7,-7.632 19.27,-7.632 5.7,0 10.48,1.476 14.32,4.433 3.85,2.953 6.67,6.41 8.44,10.371 1.79,3.957 2.68,7.297 2.68,10.043"
         style="fill:#231f20;fill-opacity:1;fill-rule:evenodd;stroke:none"
         id="path24" />
      <path
         d="m 1756.6,770.547 v -98.43 h -37.56 v 86.473 c 0,4.922 -0.45,9.355 -1.34,13.297 -0.89,3.949 -3.13,7.398 -6.73,10.363 -3.6,2.969 -9.01,4.445 -16.2,4.445 -5.55,0 -10.54,-1.25 -14.96,-3.75 -4.42,-2.511 -7.92,-6.254 -10.47,-11.242 -2.56,-4.984 -3.84,-10.976 -3.84,-17.949 v -81.637 h -37.57 v 192.067 h 37.57 v -68.168 h 0.52 c 2.53,6.172 7.58,11.398 15.18,15.703 7.59,4.297 16.26,6.437 26,6.437 9.44,0 17.91,-1.824 25.39,-5.48 7.48,-3.66 13.35,-9.055 17.62,-16.196 4.25,-7.14 6.39,-15.789 6.39,-25.933"
         style="fill:#231f20;fill-opacity:1;fill-rule:evenodd;stroke:none"
         id="path26" />
      <path
         d="m 1861.61,713.934 h 38.56 c -4.53,-15.848 -12.62,-27.399 -24.28,-34.672 -11.66,-7.266 -24.43,-10.899 -38.33,-10.899 -10.33,0 -19.8,1.364 -28.41,4.082 -8.6,2.715 -16.1,7.121 -22.49,13.2 -6.37,6.07 -11.32,14.175 -14.83,24.293 -3.51,10.132 -5.26,22.222 -5.26,36.3 0,5.957 0.77,12.789 2.35,20.481 1.57,7.679 4.65,15.472 9.26,23.344 4.59,7.882 11.56,14.539 20.91,19.964 9.35,5.414 21.28,8.129 35.79,8.129 7.88,0 15.67,-1.136 23.36,-3.426 7.69,-2.289 14.84,-6.265 21.42,-11.941 6.57,-5.68 11.91,-13.738 16,-24.187 4.1,-10.454 6.15,-23.379 6.15,-38.774 v -6.668 h -97.71 c 0.52,-5.773 1.52,-11.058 3.01,-15.844 1.47,-4.785 4.65,-9.125 9.51,-13.039 4.85,-3.914 11.83,-5.859 20.94,-5.859 5.45,0 10.47,1.387 15.1,4.164 4.62,2.781 7.61,6.574 8.95,11.352 z m -56.47,44.117 h 58.11 c -0.96,10.219 -4.25,17.625 -9.84,22.222 -5.61,4.594 -11.97,6.895 -19.12,6.895 -17.13,0 -26.85,-9.707 -29.15,-29.117"
         style="fill:#231f20;fill-opacity:1;fill-rule:evenodd;stroke:none"
         id="path28" />
      <path
         d="m 820.238,352.359 v 192.059 h 93.465 c 14.551,0 26.246,-2.559 35.102,-7.668 8.843,-5.121 15.062,-11.395 18.66,-18.836 3.59,-7.441 5.39,-15.016 5.39,-22.723 0,-11.972 -2.289,-20.671 -6.871,-26.109 -4.574,-5.445 -10.207,-9.84 -16.89,-13.187 19.906,-7.407 29.863,-22.922 29.863,-46.575 0,-7.578 -1.457,-14.8 -4.375,-21.648 -2.926,-6.863 -6.996,-12.848 -12.223,-17.942 -4.312,-4.14 -8.605,-7.394 -12.871,-9.765 -4.277,-2.379 -10.172,-4.238 -17.711,-5.578 -7.543,-1.356 -17.597,-2.028 -30.183,-2.028 h -81.356 z m 38.504,159.192 v -42.266 h 47.196 c 8.468,0 15.312,1.766 20.554,5.324 5.238,3.543 7.856,8.957 7.856,16.235 0,7.531 -2.469,12.871 -7.399,16.008 -4.929,3.128 -12.289,4.699 -22.058,4.699 h -46.149 z m 0,-74.668 v -51.656 h 49.141 c 20.453,0 30.687,9.418 30.687,28.261 0,7.887 -2.773,13.754 -8.34,17.614 -5.562,3.851 -12.402,5.781 -20.531,5.781 h -50.957"
         style="fill:#231f20;fill-opacity:1;fill-rule:evenodd;stroke:none"
         id="path30" />
      <path
         d="m 1134.06,423.531 c 0,-12.41 -1.93,-23.359 -5.79,-32.859 -3.86,-9.492 -9.14,-17.344 -15.88,-23.559 -6.73,-6.195 -14.5,-10.84 -23.28,-13.918 -8.81,-3.05 -18.08,-4.59 -27.84,-4.59 -13.16,0 -25.27,2.75 -36.32,8.254 -11.08,5.512 -19.92,13.891 -26.54,25.125 -6.621,11.239 -9.922,25.079 -9.922,41.547 0,12.457 1.938,23.446 5.844,32.957 3.895,9.516 9.228,17.367 15.998,23.547 6.78,6.188 14.49,10.793 23.17,13.824 8.67,3.024 17.93,4.547 27.77,4.547 9.88,0 19.17,-1.523 27.86,-4.547 8.69,-3.031 16.42,-7.648 23.21,-13.851 6.77,-6.215 12.07,-14.055 15.93,-23.551 3.86,-9.488 5.79,-20.469 5.79,-32.926 z m -38.51,0 c 0,11.824 -2.49,22.016 -7.46,30.578 -4.96,8.555 -13.91,12.832 -26.85,12.832 -12.9,0 -21.84,-4.32 -26.81,-12.933 -4.96,-8.617 -7.45,-18.781 -7.45,-30.477 0,-11.695 2.49,-21.867 7.45,-30.508 4.97,-8.64 13.91,-12.96 26.81,-12.96 12.94,0 21.89,4.289 26.85,12.894 4.97,8.602 7.46,18.789 7.46,30.574"
         style="fill:#231f20;fill-opacity:1;fill-rule:evenodd;stroke:none"
         id="path32" />
      <path
         d="m 1146.37,352.359 v 142.286 h 35.93 v -24.653 h 0.52 c 3.47,6.367 6.67,11.434 9.58,15.188 2.9,3.75 6.74,6.89 11.53,9.425 4.77,2.528 10.72,3.801 17.84,3.801 1.61,0 4.03,-0.316 7.24,-0.941 v -37.621 c -2.12,0.351 -5.69,0.523 -10.68,0.523 -22.93,0 -34.39,-11.32 -34.39,-33.941 v -74.067 h -37.57"
         style="fill:#231f20;fill-opacity:1;fill-rule:evenodd;stroke:none"
         id="path34" />
      <path
         d="m 1354.14,451.105 h -36.68 c -1,5.829 -3.15,10.383 -6.45,13.688 -3.3,3.301 -9.47,4.961 -18.5,4.961 -15.2,0 -22.8,-4.633 -22.8,-13.875 0,-4.789 5.04,-8.457 15.13,-11.024 10.08,-2.562 20.85,-5.156 32.3,-7.781 11.45,-2.629 21.2,-6.937 29.25,-12.91 8.04,-5.973 12.07,-14.891 12.07,-26.754 0,-12.644 -3.39,-22.617 -10.16,-29.902 -6.78,-7.305 -14.87,-12.278 -24.26,-14.934 -9.42,-2.644 -18.68,-3.969 -27.79,-3.969 -18.71,0 -34.65,3.852 -47.81,11.551 -13.15,7.707 -19.97,20.336 -20.45,37.887 h 38.52 c 0,-13.863 10.26,-20.793 30.79,-20.793 8.51,0 14.57,1.539 18.18,4.613 3.61,3.094 5.41,6.434 5.41,10.043 0,5.129 -5.24,9.035 -15.73,11.703 -10.49,2.668 -21.19,5.278 -32.11,7.813 -10.91,2.543 -20.31,6.758 -28.17,12.644 -7.87,5.891 -11.81,14.832 -11.81,26.821 0,7.738 1.82,15.207 5.44,22.426 3.63,7.207 9.73,13.195 18.3,17.941 8.58,4.762 19.76,7.152 33.57,7.152 40.21,0 61.46,-15.777 63.76,-47.301"
         style="fill:#231f20;fill-opacity:1;fill-rule:evenodd;stroke:none"
         id="path36" />
      <path
         d="m 1456.32,394.168 h 38.57 c -4.54,-15.848 -12.63,-27.398 -24.29,-34.668 -11.67,-7.262 -24.44,-10.895 -38.33,-10.895 -10.33,0 -19.81,1.364 -28.41,4.079 -8.61,2.714 -16.1,7.117 -22.48,13.195 -6.39,6.078 -11.33,14.176 -14.84,24.301 -3.51,10.129 -5.26,22.222 -5.26,36.293 0,5.965 0.78,12.789 2.35,20.476 1.57,7.696 4.65,15.477 9.25,23.36 4.59,7.875 11.57,14.531 20.92,19.953 9.34,5.429 21.27,8.144 35.79,8.144 7.88,0 15.68,-1.148 23.36,-3.433 7.69,-2.282 14.83,-6.262 21.41,-11.942 6.58,-5.676 11.92,-13.746 16.01,-24.195 4.09,-10.445 6.15,-23.367 6.15,-38.773 v -6.657 h -97.72 c 0.52,-5.785 1.52,-11.062 3.01,-15.851 1.48,-4.785 4.65,-9.133 9.51,-13.035 4.86,-3.915 11.84,-5.868 20.95,-5.868 5.44,0 10.47,1.387 15.09,4.168 4.62,2.785 7.61,6.571 8.96,11.348 z m -56.48,44.129 h 58.11 c -0.96,10.211 -4.23,17.613 -9.84,22.211 -5.6,4.601 -11.97,6.898 -19.12,6.898 -17.12,0 -26.84,-9.703 -29.15,-29.109"
         style="fill:#231f20;fill-opacity:1;fill-rule:evenodd;stroke:none"
         id="path38" />
      <path
         d="m 1009.95,541.102 v -34.75 h 37.57 v 34.75 h -37.57"
         style="fill:#231f20;fill-opacity:1;fill-rule:evenodd;stroke:none"
         id="path40" />
      <path
         d="m 1074.29,541.102 v -34.75 h 37.56 v 34.75 h -37.56"
         style="fill:#231f20;fill-opacity:1;fill-rule:evenodd;stroke:none"
         id="path42" />
      <path
         d="M 30.9453,864.184 494.633,1145.79 H 234.863 L 30.9453,1021.95 V 864.184"
         style="fill:#3fabd2;fill-opacity:1;fill-rule:evenodd;stroke:none"
         id="path44" />
      <path
         d="M 493.578,1145.79 H 233.813 l 235.574,-142.75 h 259.765 l -235.574,142.75"
         style="fill:#2e3292;fill-opacity:1;fill-rule:evenodd;stroke:none"
         id="path46" />
      <path
         d="M 1189.63,1284.79 H 929.863 L 465.129,1003.04 h 259.766 l 464.735,281.75"
         style="fill:#3fabd2;fill-opacity:1;fill-rule:evenodd;stroke:none"
         id="path48" />
      <path
         d="M 1188.85,1282.91 H 929.082 l 235.578,-142.75 h 259.77 l -235.58,142.75"
         style="fill:#2e3292;fill-opacity:1;fill-rule:evenodd;stroke:none"
         id="path50" />
      <path
         d="M 1901.81,1590.3 1162,1140.16 h 259.78 l 480.03,292.08 v 158.06"
         style="fill:#3fabd2;fill-opacity:1;fill-rule:evenodd;stroke:none"
         id="path52" />
    </g>
  </g>
</svg>
